<!-- Generator: Adobe Illustrator 21.1.0, SVG Export Plug-In  -->
<svg version="1.1"
	 xmlns="http://www.w3.org/2000/svg" xmlns:xlink="http://www.w3.org/1999/xlink" xmlns:a="http://ns.adobe.com/AdobeSVGViewerExtensions/3.0/"
	 x="0px" y="0px" width="83px" height="44.9px" viewBox="0 0 83 44.9" style="enable-background:new 0 0 83 44.9;"
	 xml:space="preserve">
<style type="text/css">
	.st0{fill:#FFFFFF;}
</style>
<defs>
</defs>
<g>
	<path class="st0" d="M21,30.9h-1h-3h-0.5H16h-0.5c-0.3,0-0.5,0.2-0.5,0.5v12.5c0,0.6,0.4,1,1,1c0.6,0,1-0.4,1-1v-3h4
		c2.8,0,5-2.2,5-5S23.8,30.9,21,30.9z M21,38.9h-4v-6h3h1c1.7,0,3,1.3,3,3S22.7,38.9,21,38.9z"/>
	<path class="st0" d="M82,30.9h-4.5h-1H72c-0.6,0-1,0.4-1,1s0.4,1,1,1h4v11c0,0.6,0.4,1,1,1c0.6,0,1-0.4,1-1v-11h4c0.6,0,1-0.4,1-1
		S82.5,30.9,82,30.9z"/>
	<path class="st0" d="M54,30.9c-0.6,0-1,0.4-1,1v5h-8v-5c0-0.6-0.4-1-1-1c-0.6,0-1,0.4-1,1v5v2v5c0,0.6,0.4,1,1,1c0.6,0,1-0.4,1-1
		v-5h8v5c0,0.6,0.4,1,1,1s1-0.4,1-1v-5v-2v-5C55,31.4,54.5,30.9,54,30.9z"/>
	<path class="st0" d="M35,32.9c1.3,0,2.6,0.5,3.5,1.5c0.4,0.4,1,0.4,1.4,0c0.4-0.4,0.4-1,0-1.4c-1.3-1.3-3.1-2.1-4.9-2.1
		c-3.9,0-7,3.1-7,7s3.1,7,7,7c1.9,0,3.6-0.7,4.9-2.1c0.4-0.4,0.4-1,0-1.4s-1-0.4-1.4,0c-0.9,0.9-2.2,1.5-3.5,1.5c-2.8,0-5-2.2-5-5
		S32.2,32.9,35,32.9z"/>
	<path class="st0" d="M64.9,31.5c-0.3-0.7-1.5-0.7-1.8,0l-5,12c-0.2,0.5,0,1.1,0.5,1.3c0.5,0.2,1.1,0,1.3-0.5l0.6-1.4h7l0.6,1.4
		c0.2,0.4,0.5,0.6,0.9,0.6c0.1,0,0.3,0,0.4-0.1c0.5-0.2,0.8-0.8,0.5-1.3L64.9,31.5z M61.3,40.9l2.7-6.4l2.7,6.4H61.3z"/>
	<path class="st0" d="M11,30.9c-0.6,0-1,0.4-1,1v3v3v1c0,2.2-1.8,4-4,4c-2.2,0-4-1.8-4-4v-1v-3v-3c0-0.6-0.4-1-1-1c-0.6,0-1,0.4-1,1
		v3v3v1c0,3.3,2.7,6,6,6c3.3,0,6-2.7,6-6v-1v-3v-3C12,31.4,11.6,30.9,11,30.9z"/>
</g>
<path class="st0" d="M41.5,0c-5.7,0-10.4,4.7-10.4,10.4c0,2,0.5,3.8,1.5,5.3l-1.5,3.8c-0.2,0.7,0.5,1.4,1.2,1.2l3.8-1.5
	c1.6,0.9,3.4,1.5,5.3,1.5c5.7,0,10.4-4.7,10.4-10.4C51.9,4.7,47.2,0,41.5,0z M46.4,10.9H42v4.5c0,0.3-0.2,0.5-0.5,0.5
	c-0.3,0-0.5-0.2-0.5-0.5v-4.5h-4.5c-0.3,0-0.5-0.2-0.5-0.5c0-0.3,0.2-0.5,0.5-0.5H41V5.5C41,5.2,41.2,5,41.5,5C41.8,5,42,5.2,42,5.5
	v4.5h4.5c0.3,0,0.5,0.2,0.5,0.5C46.9,10.7,46.7,10.9,46.4,10.9z"/>
</svg>
