<!-- Generator: Adobe Illustrator 21.1.0, SVG Export Plug-In  -->
<svg version="1.1"
	 xmlns="http://www.w3.org/2000/svg" xmlns:xlink="http://www.w3.org/1999/xlink" xmlns:a="http://ns.adobe.com/AdobeSVGViewerExtensions/3.0/"
	 x="0px" y="0px" width="80px" height="65.1px" viewBox="0 0 80 65.1" style="enable-background:new 0 0 80 65.1;"
	 xml:space="preserve">
<style type="text/css">
	.st0{fill:#FF5B2E;}
</style>
<defs>
</defs>
<path class="st0" d="M9.2,64.3c5.7-4.6,11.9-8.7,18.5-12V47c-0.7-1.3-1.3-2.8-1.6-4.3c-1.1-0.7-1.9-2.4-2.7-5.2
	c-0.9-3-0.8-5,0.2-6.2c0.2-0.2,0.4-0.4,0.7-0.6c0-0.2-0.1-0.4-0.1-0.6V30c-0.5-2.3-0.5-4.6,0-6.8c0.7-2.7,2-5.1,4-7.1
	c1.1-1.1,2.3-2.2,3.6-3c1.1-0.8,2.3-1.4,3.6-1.8c1.1-0.4,2.2-0.6,3.4-0.6c2.9-0.3,5.8,0.3,8.3,1.8c1.5,0.8,2.8,2,3.8,3.4
	c1.2,0.4,2.2,1.1,3,2.1c2,2.5,2.5,6.6,1.6,12.2c0,0.2-0.1,0.4-0.1,0.7c0.2,0.2,0.5,0.4,0.7,0.6c1,1.2,1.1,3.2,0.2,6.2
	c-0.8,2.8-1.6,4.5-2.7,5.2c-0.3,1.5-0.9,2.9-1.6,4.2v5.3c6.6,3.3,12.8,7.4,18.5,12c0.3,0.2,0.6,0.5,0.8,0.8C76.7,58.2,80,49.5,80,40
	C80,17.9,62.1,0,40,0S0,17.9,0,40c0,9.4,3.2,18,8.6,24.8C8.8,64.6,9,64.4,9.2,64.3z"/>
</svg>
