<!-- Generator: Adobe Illustrator 21.1.0, SVG Export Plug-In  -->
<svg version="1.1"
	 xmlns="http://www.w3.org/2000/svg" xmlns:xlink="http://www.w3.org/1999/xlink" xmlns:a="http://ns.adobe.com/AdobeSVGViewerExtensions/3.0/"
	 x="0px" y="0px" width="80px" height="68.4px" viewBox="0 0 80 68.4" style="enable-background:new 0 0 80 68.4;"
	 xml:space="preserve">
<style type="text/css">
	.st0{fill:#FF5B2E;}
</style>
<defs>
</defs>
<path class="st0" d="M40,0C17.9,0,0,17.9,0,40c0,11.1,4.5,21.1,11.8,28.4v-1.5c0.2-3,2-5.6,4.7-6.9c1.8-0.9,3.7-1.6,5.7-2.2h0.1
	l0.6-0.2c2.8-0.7,5.6-1.7,8.2-2.9l0.1-0.1c0.2-0.1,0.2-0.3,0.2-0.5v-2.1c-9-0.3-12-4.5-12.1-4.6c-0.5-0.7-0.3-1.6,0.4-2.1
	c0.2-0.2,0.5-0.3,0.8-0.3c1-0.1,3.9-2.7,3.7-13C23.9,16.8,31.2,14,33.9,13c6.6-2.5,10.6,0.2,12,1.5c2.5-0.2,5,0.7,6.8,2.5
	c3.2,3.3,4.6,9.6,3.8,17.9c-0.9,8.9,3.4,10.4,3.6,10.4c0.5,0.2,0.9,0.6,1,1.1c0.1,0.5,0,1-0.4,1.4c-1.9,1.9-4.5,2.9-7,3.5
	c-1.5,0.4-3.2,0.7-5.3,0.8v2.1c0,0.2,0.1,0.4,0.2,0.5l0.1,0.1c2.6,1.2,5.4,2.2,8.2,2.9l0.6,0.2h0.1c2,0.5,3.9,1.3,5.7,2.2
	c2.7,1.3,4.5,3.9,4.7,6.9v1.5C75.5,61.1,80,51.1,80,40C80,17.9,62.1,0,40,0z"/>
</svg>
