<!-- Generator: Adobe Illustrator 21.1.0, SVG Export Plug-In  -->
<svg version="1.1"
	 xmlns="http://www.w3.org/2000/svg" xmlns:xlink="http://www.w3.org/1999/xlink" xmlns:a="http://ns.adobe.com/AdobeSVGViewerExtensions/3.0/"
	 x="0px" y="0px" width="16px" height="16px" viewBox="0 0 16 16" style="enable-background:new 0 0 16 16;" xml:space="preserve">
<style type="text/css">
	.st0{fill:#FFFFFF;}
</style>
<defs>
</defs>
<g>
	<path class="st0" d="M14.5,16c-0.4,0-0.8-0.1-1.1-0.4l-13-13C-0.1,2-0.1,1,0.4,0.4C1-0.1,2-0.1,2.6,0.4l13,13
		c0.6,0.6,0.6,1.5,0,2.1C15.3,15.9,14.9,16,14.5,16z"/>
</g>
<g>
	<path class="st0" d="M1.5,16c-0.4,0-0.8-0.1-1.1-0.4c-0.6-0.6-0.6-1.5,0-2.1l13-13c0.6-0.6,1.5-0.6,2.1,0c0.6,0.6,0.6,1.5,0,2.1
		l-13,13C2.3,15.9,1.9,16,1.5,16z"/>
</g>
</svg>
