<!-- Generator: Adobe Illustrator 21.1.0, SVG Export Plug-In  -->
<svg version="1.1"
	 xmlns="http://www.w3.org/2000/svg" xmlns:xlink="http://www.w3.org/1999/xlink" xmlns:a="http://ns.adobe.com/AdobeSVGViewerExtensions/3.0/"
	 x="0px" y="0px" width="111.5px" height="20.8px" viewBox="0 0 111.5 20.8" style="enable-background:new 0 0 111.5 20.8;"
	 xml:space="preserve">
<style type="text/css">
	.st0{fill:#FFFFFF;}
</style>
<defs>
</defs>
<path class="st0" d="M49.5,3.9h-1h-3H45h-0.5H44c-0.3,0-0.5,0.2-0.5,0.5v12.5c0,0.6,0.4,1,1,1c0.6,0,1-0.4,1-1v-3h4c2.8,0,5-2.2,5-5
	S52.3,3.9,49.5,3.9z M49.5,11.9h-4v-6h3h1c1.7,0,3,1.3,3,3S51.2,11.9,49.5,11.9z"/>
<path class="st0" d="M110.5,3.9H106h-1h-4.5c-0.6,0-1,0.4-1,1s0.4,1,1,1h4v11c0,0.6,0.4,1,1,1c0.6,0,1-0.4,1-1v-11h4
	c0.6,0,1-0.4,1-1S111,3.9,110.5,3.9z"/>
<path class="st0" d="M82.5,3.9c-0.6,0-1,0.4-1,1v5h-8v-5c0-0.6-0.4-1-1-1c-0.6,0-1,0.4-1,1v5v2v5c0,0.6,0.4,1,1,1c0.6,0,1-0.4,1-1
	v-5h8v5c0,0.6,0.4,1,1,1s1-0.4,1-1v-5v-2v-5C83.5,4.4,83.1,3.9,82.5,3.9z"/>
<path class="st0" d="M63.5,5.9c1.3,0,2.6,0.5,3.5,1.5c0.4,0.4,1,0.4,1.4,0c0.4-0.4,0.4-1,0-1.4c-1.3-1.3-3.1-2.1-4.9-2.1
	c-3.9,0-7,3.1-7,7s3.1,7,7,7c1.9,0,3.6-0.7,4.9-2.1c0.4-0.4,0.4-1,0-1.4s-1-0.4-1.4,0c-0.9,0.9-2.2,1.5-3.5,1.5c-2.8,0-5-2.2-5-5
	S60.7,5.9,63.5,5.9z"/>
<path class="st0" d="M93.4,4.5c-0.3-0.7-1.5-0.7-1.8,0l-5,12c-0.2,0.5,0,1.1,0.5,1.3c0.5,0.2,1.1,0,1.3-0.5l0.6-1.4h7l0.6,1.4
	c0.2,0.4,0.5,0.6,0.9,0.6c0.1,0,0.3,0,0.4-0.1c0.5-0.2,0.8-0.8,0.5-1.3L93.4,4.5z M89.8,13.9l2.7-6.4l2.7,6.4H89.8z"/>
<path class="st0" d="M39.5,3.9c-0.6,0-1,0.4-1,1v3v3v1c0,2.2-1.8,4-4,4c-2.2,0-4-1.8-4-4v-1v-3v-3c0-0.6-0.4-1-1-1c-0.6,0-1,0.4-1,1
	v3v3v1c0,3.3,2.7,6,6,6c3.3,0,6-2.7,6-6v-1v-3v-3C40.5,4.4,40.1,3.9,39.5,3.9z"/>
<path class="st0" d="M10.4,0C4.7,0,0,4.7,0,10.4c0,2,0.5,3.8,1.5,5.3L0,19.6c-0.2,0.7,0.5,1.4,1.2,1.2l3.8-1.5
	c1.6,0.9,3.4,1.5,5.3,1.5c5.7,0,10.4-4.7,10.4-10.4C20.8,4.7,16.2,0,10.4,0z M15.4,10.9h-4.5v4.5c0,0.3-0.2,0.5-0.5,0.5
	c-0.3,0-0.5-0.2-0.5-0.5v-4.5H5.5c-0.3,0-0.5-0.2-0.5-0.5c0-0.3,0.2-0.5,0.5-0.5h4.5V5.5c0-0.3,0.2-0.5,0.5-0.5
	c0.3,0,0.5,0.2,0.5,0.5v4.5h4.5c0.3,0,0.5,0.2,0.5,0.5C15.9,10.7,15.6,10.9,15.4,10.9z"/>
</svg>
