<!-- Generator: Adobe Illustrator 21.1.0, SVG Export Plug-In  -->
<svg version="1.1"
	 xmlns="http://www.w3.org/2000/svg" xmlns:xlink="http://www.w3.org/1999/xlink" xmlns:a="http://ns.adobe.com/AdobeSVGViewerExtensions/3.0/"
	 x="0px" y="0px" width="20.6px" height="22px" viewBox="0 0 20.6 22" style="enable-background:new 0 0 20.6 22;"
	 xml:space="preserve">
<style type="text/css">
	.st0{fill:#FFFFFF;}
</style>
<defs>
</defs>
<path class="st0" d="M19.2,4.5c-0.5-0.8-1.5-1.1-2.3-0.6c0,0,0,0,0,0l-1,0.6c-0.8-0.7-1.7-1.2-2.7-1.6V1.7c0-0.9-0.8-1.7-1.7-1.7
	H9.1C8.2,0,7.4,0.8,7.4,1.7v1.2c-1,0.4-1.9,0.9-2.7,1.6l-1-0.6C2.9,3.4,1.9,3.7,1.4,4.5c0,0,0,0,0,0L0.2,6.5C-0.2,7.4,0,8.4,0.8,8.9
	c0,0,0,0,0,0l1,0.6c-0.2,1-0.2,2.1,0,3.1l-1,0.6c-0.8,0.5-1.1,1.5-0.6,2.3c0,0,0,0,0,0l1.2,2.1c0.5,0.8,1.5,1.1,2.3,0.6c0,0,0,0,0,0
	l1-0.6c0.8,0.7,1.7,1.2,2.7,1.6v1.2c0,0.9,0.8,1.7,1.7,1.7h2.4c0.9,0,1.7-0.8,1.7-1.7v-1.2c1-0.4,1.9-0.9,2.7-1.6l1,0.6
	c0.8,0.5,1.8,0.2,2.3-0.6c0,0,0,0,0,0l1.2-2.1c0.5-0.8,0.2-1.8-0.6-2.3c0,0,0,0,0,0l-1-0.6c0.2-1,0.2-2.1,0-3.1l1-0.6
	c0.8-0.5,1.1-1.5,0.6-2.3c0,0,0,0,0,0L19.2,4.5z M10.3,15.3c-2.4,0-4.3-1.9-4.3-4.3c0-2.4,1.9-4.3,4.3-4.3c2.4,0,4.3,1.9,4.3,4.3
	c0,0,0,0,0,0C14.6,13.4,12.7,15.3,10.3,15.3z"/>
</svg>
